# xmcd
#
# Track frame offsets:
#	150
#	14896
#	27486
#	47112
#	57896
#	71217
#	95382
#	114861
#	127487
#	140177
#	156132
#
# Disc length: 2168 seconds
#
# Revision: 0
# Processed by: cddbd v1.5.1PL0 Copyright (c) Steve Scherf et al.
# Submitted via: dBpowerAMP V4.0
#
DISCID=a908760b
DTITLE=Tim James - Upside Down and Backwards
DYEAR=1900
DGENRE=Blues
TTITLE0=Tried And True
TTITLE1=Upside Down And Backwards
TTITLE2=Trying To Find A Way
TTITLE3=Cheese Strings
TTITLE4=When
TTITLE5=Off The Floor
TTITLE6=Runnin' Around
TTITLE7=Another Way
TTITLE8=Bad Luck
TTITLE9=All Along The Watchtower
TTITLE10=Djang Djang
EXTD=
EXTT0=
EXTT1=
EXTT2=
EXTT3=
EXTT4=
EXTT5=
EXTT6=
EXTT7=
EXTT8=
EXTT9=
EXTT10=
PLAYORDER=
